# xmcd
#
# Track frame offsets: 
#        150
#        17084
#        34927
#        53152
#        73936
#        82322
#        96184
#        113397
#        146242
#        182427
#        201871
#        218764
#        237011
#        261328
#        280939
#        298440
#        312669
#
# Disc length: 4434 seconds
#
# Revision: 0
# Processed by: cddbd v1.5.2PL0 Copyright (c) Steve Scherf et al.
# Submitted via: ExactAudioCopy v0.95b4
#
DISCID=0d115011
DTITLE=Janis Joplin - Anthology
DYEAR=1900
DGENRE=Rock
TTITLE0=Move Over
TTITLE1=Half Moon
TTITLE2=Cry Baby
TTITLE3=Me And Bobby McGee
TTITLE4=Mercedes Benz
TTITLE5=Down On Me
TTITLE6=Bye Bye Baby
TTITLE7=Get It While You Can
TTITLE8=Ball And Chain
TTITLE9=Piece Of My Heart
TTITLE10=Maybe
TTITLE11=Try (Just A Little Bit Harder)
TTITLE12=To Love Somebody
TTITLE13=Oh, Sweet Mary
TTITLE14=Little Girl Blue
TTITLE15=Trust Me
TTITLE16=Turtle Blues
EXTD=
EXTT0=
EXTT1=
EXTT2=
EXTT3=
EXTT4=
EXTT5=
EXTT6=
EXTT7=
EXTT8=
EXTT9=
EXTT10=
EXTT11=
EXTT12=
EXTT13=
EXTT14=
EXTT15=
EXTT16=
PLAYORDER=
